<svg width="112" height="56" viewBox="0 0 112 56" fill="none" xmlns="http://www.w3.org/2000/svg">
<path d="M16.66 9.028H20.496V24.904H16.66V9.028ZM22.512 6.592H26.46V27.872C26.46 28.9547 26.348 29.7947 26.124 30.392C25.9 30.9893 25.48 31.4467 24.864 31.764C24.248 32.1 23.4827 32.3147 22.568 32.408C21.672 32.52 20.6173 32.576 19.404 32.576C19.3667 32.184 19.2733 31.736 19.124 31.232C18.9933 30.728 18.8347 30.224 18.648 29.72C18.48 29.216 18.3027 28.7773 18.116 28.404C18.8813 28.4413 19.6187 28.4693 20.328 28.488C21.056 28.488 21.56 28.488 21.84 28.488C22.0827 28.488 22.2507 28.4413 22.344 28.348C22.456 28.2547 22.512 28.0867 22.512 27.844V6.592ZM4.032 28.544H12.236V31.512H4.032V28.544ZM0.952 20.368H15.456V23.392H0.952V20.368ZM2.128 13.312H14.364V16.112H2.128V13.312ZM2.492 16.924H13.972V19.556H2.492V16.924ZM6.244 6.284H10.192V10.204H6.244V6.284ZM6.356 11.968H10.108V21.936H6.356V11.968ZM2.352 24.064H14.308V32.436H10.472V27.032H5.992V32.688H2.352V24.064ZM0.84 8.524H15.764V13.592H12.012V11.548H4.396V13.592H0.84V8.524ZM38.472 7.292C38.3973 7.53467 38.3133 7.852 38.22 8.244C38.1267 8.636 38.024 9.056 37.912 9.504C37.8 9.952 37.6973 10.4 37.604 10.848C37.5293 11.2773 37.4733 11.66 37.436 11.996C37.8093 11.548 38.22 11.1187 38.668 10.708C39.116 10.2973 39.6107 9.924 40.152 9.588C40.712 9.252 41.3093 8.99067 41.944 8.804C42.5787 8.59867 43.26 8.496 43.988 8.496C45.332 8.496 46.5453 8.90667 47.628 9.728C48.7293 10.5493 49.5973 11.7253 50.232 13.256C50.8853 14.768 51.212 16.5787 51.212 18.688C51.212 20.6853 50.9227 22.44 50.344 23.952C49.7653 25.464 48.9253 26.7613 47.824 27.844C46.7413 28.9267 45.4253 29.8133 43.876 30.504C42.3453 31.1947 40.6187 31.7173 38.696 32.072L36.12 28.124C37.688 27.8813 39.116 27.564 40.404 27.172C41.692 26.7613 42.7933 26.2107 43.708 25.52C44.6413 24.8293 45.3507 23.9333 45.836 22.832C46.34 21.7307 46.592 20.3493 46.592 18.688C46.592 17.2693 46.4427 16.1027 46.144 15.188C45.864 14.2733 45.4627 13.592 44.94 13.144C44.436 12.696 43.848 12.472 43.176 12.472C42.3733 12.472 41.6173 12.7427 40.908 13.284C40.1987 13.8253 39.564 14.5253 39.004 15.384C38.4627 16.2427 38.0333 17.176 37.716 18.184C37.4173 19.1733 37.268 20.1347 37.268 21.068C37.268 21.3667 37.2773 21.74 37.296 22.188C37.3147 22.6173 37.3613 23.14 37.436 23.756L33.264 24.036C33.1893 23.4947 33.1053 22.804 33.012 21.964C32.9373 21.1053 32.9 20.2 32.9 19.248C32.9 18.5947 32.9187 17.9133 32.956 17.204C32.9933 16.4947 33.04 15.7667 33.096 15.02C33.152 14.2733 33.2267 13.508 33.32 12.724C33.4133 11.9213 33.516 11.1187 33.628 10.316C33.7027 9.71867 33.7587 9.13067 33.796 8.552C33.8333 7.95467 33.852 7.46933 33.852 7.096L38.472 7.292ZM67.172 7.936H80.416V11.8H67.172V7.936ZM78.596 7.936H82.824C82.824 7.936 82.8147 8.06667 82.796 8.328C82.796 8.58933 82.796 8.87867 82.796 9.196C82.796 9.51333 82.7867 9.76533 82.768 9.952C82.6933 13.4053 82.6187 16.336 82.544 18.744C82.4693 21.152 82.376 23.14 82.264 24.708C82.152 26.276 82.0027 27.508 81.816 28.404C81.648 29.2813 81.4333 29.916 81.172 30.308C80.7613 30.9427 80.3413 31.3907 79.912 31.652C79.4827 31.9133 78.9787 32.1187 78.4 32.268C77.8773 32.38 77.252 32.436 76.524 32.436C75.796 32.4547 75.0493 32.4547 74.284 32.436C74.2653 31.8573 74.1347 31.1573 73.892 30.336C73.6493 29.5147 73.3507 28.8147 72.996 28.236C73.6867 28.292 74.312 28.3293 74.872 28.348C75.4507 28.348 75.908 28.348 76.244 28.348C76.5053 28.348 76.7107 28.3107 76.86 28.236C77.028 28.1427 77.1867 27.984 77.336 27.76C77.5413 27.4987 77.7093 26.9667 77.84 26.164C77.9707 25.3613 78.0827 24.2227 78.176 22.748C78.2693 21.2547 78.344 19.3787 78.4 17.12C78.4747 14.8427 78.54 12.108 78.596 8.916V7.936ZM56.448 14.432L68.46 12.276L69.104 15.972L57.092 18.212L56.448 14.432ZM59.472 6.928H63.504V21.852C63.504 22.468 63.5227 22.8507 63.56 23C63.616 23.1493 63.7373 23.224 63.924 23.224C63.9613 23.224 64.008 23.224 64.064 23.224C64.1387 23.224 64.2133 23.224 64.288 23.224C64.3813 23.224 64.4653 23.224 64.54 23.224C64.6147 23.224 64.6707 23.224 64.708 23.224C64.8573 23.224 64.9693 23.14 65.044 22.972C65.1187 22.7853 65.1747 22.44 65.212 21.936C65.2493 21.432 65.2773 20.704 65.296 19.752C65.7253 20.1067 66.2947 20.4427 67.004 20.76C67.7133 21.0587 68.3387 21.2733 68.88 21.404C68.7493 22.804 68.544 23.924 68.264 24.764C67.984 25.5853 67.592 26.1827 67.088 26.556C66.584 26.9107 65.9307 27.088 65.128 27.088C64.9787 27.088 64.8107 27.088 64.624 27.088C64.456 27.088 64.2787 27.088 64.092 27.088C63.924 27.088 63.756 27.088 63.588 27.088C63.42 27.088 63.2707 27.088 63.14 27.088C62.1693 27.088 61.4133 26.9293 60.872 26.612C60.3493 26.2947 59.9853 25.7533 59.78 24.988C59.5747 24.2227 59.472 23.1773 59.472 21.852V6.928ZM71.008 9.784H75.096C75.0773 11.7627 75.0213 13.676 74.928 15.524C74.8533 17.3533 74.6853 19.108 74.424 20.788C74.1627 22.4493 73.7613 24.0173 73.22 25.492C72.6787 26.948 71.9413 28.3013 71.008 29.552C70.0747 30.784 68.88 31.8853 67.424 32.856C67.1253 32.3147 66.7053 31.7173 66.164 31.064C65.6227 30.4293 65.0907 29.9253 64.568 29.552C65.8747 28.7307 66.9293 27.8067 67.732 26.78C68.5347 25.7533 69.16 24.624 69.608 23.392C70.056 22.1413 70.3733 20.8067 70.56 19.388C70.7467 17.9507 70.8587 16.4293 70.896 14.824C70.952 13.2187 70.9893 11.5387 71.008 9.784ZM89.88 8.272C90.3093 8.328 90.776 8.37467 91.28 8.412C91.784 8.43067 92.2693 8.44 92.736 8.44C93.0347 8.44 93.4733 8.44 94.052 8.44C94.6307 8.42133 95.2747 8.412 95.984 8.412C96.712 8.39333 97.4307 8.37467 98.14 8.356C98.868 8.33733 99.5213 8.31867 100.1 8.3C100.697 8.26267 101.164 8.23467 101.5 8.216C102.172 8.16 102.704 8.104 103.096 8.048C103.507 7.992 103.805 7.936 103.992 7.88L106.092 10.876C105.737 11.1 105.373 11.324 105 11.548C104.645 11.7533 104.291 11.9867 103.936 12.248C103.544 12.5093 103.105 12.8267 102.62 13.2C102.135 13.5547 101.64 13.9373 101.136 14.348C100.632 14.74 100.137 15.1227 99.652 15.496C99.1853 15.8693 98.756 16.2053 98.364 16.504C98.7373 16.4293 99.0733 16.3827 99.372 16.364C99.6707 16.3453 99.988 16.336 100.324 16.336C101.929 16.336 103.376 16.6533 104.664 17.288C105.971 17.9227 107.007 18.7907 107.772 19.892C108.537 20.9747 108.92 22.2253 108.92 23.644C108.92 25.1 108.556 26.4533 107.828 27.704C107.1 28.9547 105.971 29.9533 104.44 30.7C102.909 31.4653 100.931 31.848 98.504 31.848C97.1973 31.848 95.9933 31.652 94.892 31.26C93.7907 30.868 92.9133 30.308 92.26 29.58C91.6067 28.8333 91.28 27.9467 91.28 26.92C91.28 26.0987 91.504 25.324 91.952 24.596C92.4187 23.868 93.0627 23.28 93.884 22.832C94.7053 22.384 95.648 22.16 96.712 22.16C98.0187 22.16 99.1293 22.4213 100.044 22.944C100.959 23.448 101.659 24.1387 102.144 25.016C102.648 25.8933 102.9 26.864 102.9 27.928L98.924 28.404C98.924 27.4893 98.7187 26.7613 98.308 26.22C97.916 25.66 97.3933 25.38 96.74 25.38C96.2733 25.38 95.9093 25.5013 95.648 25.744C95.4053 25.968 95.284 26.22 95.284 26.5C95.284 26.9293 95.4987 27.284 95.928 27.564C96.3573 27.844 96.9267 27.984 97.636 27.984C99.204 27.984 100.492 27.8067 101.5 27.452C102.508 27.0973 103.245 26.5933 103.712 25.94C104.197 25.268 104.44 24.484 104.44 23.588C104.44 22.7853 104.188 22.0947 103.684 21.516C103.199 20.9187 102.536 20.4613 101.696 20.144C100.856 19.8267 99.9227 19.668 98.896 19.668C97.8693 19.668 96.908 19.8173 96.012 20.116C95.1347 20.396 94.304 20.7973 93.52 21.32C92.736 21.824 91.98 22.4307 91.252 23.14C90.5427 23.8307 89.852 24.5867 89.18 25.408L86.1 22.216C86.548 21.8613 87.0707 21.4413 87.668 20.956C88.2653 20.4707 88.8813 19.9667 89.516 19.444C90.1507 18.9027 90.7573 18.3893 91.336 17.904C91.9147 17.4187 92.4093 17.008 92.82 16.672C93.212 16.3547 93.6507 16 94.136 15.608C94.64 15.216 95.144 14.8147 95.648 14.404C96.1707 13.9747 96.6653 13.5733 97.132 13.2C97.5987 12.808 98 12.4627 98.336 12.164C98.056 12.164 97.72 12.1733 97.328 12.192C96.9547 12.2107 96.5533 12.2293 96.124 12.248C95.6947 12.248 95.256 12.2573 94.808 12.276C94.3787 12.2947 93.968 12.3227 93.576 12.36C93.184 12.3787 92.8387 12.3973 92.54 12.416C92.1293 12.4347 91.6907 12.472 91.224 12.528C90.7573 12.5653 90.356 12.612 90.02 12.668L89.88 8.272Z" fill="#F5F7FA"/>
<path d="M7.16944 46.152C7.10544 45.928 7.04144 45.7093 6.97744 45.496C6.91344 45.272 6.85477 45.064 6.80144 44.872C6.75877 44.6693 6.7161 44.4827 6.67344 44.312C6.63077 44.1413 6.59877 43.9973 6.57744 43.88H6.51344C6.4921 43.9973 6.4601 44.1413 6.41744 44.312C6.38544 44.4827 6.34277 44.6693 6.28944 44.872C6.24677 45.0747 6.19344 45.288 6.12944 45.512C6.0761 45.7253 6.0121 45.944 5.93744 46.168L4.40144 50.984H2.80144L0.449438 42.408H1.90544L3.08944 46.984C3.17477 47.2933 3.25477 47.608 3.32944 47.928C3.4041 48.2373 3.4681 48.536 3.52144 48.824C3.58544 49.1013 3.6281 49.3413 3.64944 49.544H3.71344C3.74544 49.416 3.78277 49.256 3.82544 49.064C3.8681 48.872 3.91077 48.6693 3.95344 48.456C4.00677 48.2427 4.0601 48.0293 4.11344 47.816C4.17744 47.6027 4.2361 47.4107 4.28944 47.24L5.80944 42.408H7.34544L8.81744 47.24C8.8921 47.4853 8.96677 47.7467 9.04144 48.024C9.12677 48.3013 9.20144 48.5733 9.26544 48.84C9.32944 49.096 9.3721 49.3253 9.39344 49.528H9.45744C9.47877 49.3467 9.5161 49.1227 9.56944 48.856C9.63344 48.5787 9.70277 48.28 9.77744 47.96C9.86277 47.6293 9.9481 47.304 10.0334 46.984L11.2334 42.408H12.6734L10.2894 50.984H8.64144L7.16944 46.152ZM17.4596 42.28C18.5049 42.28 19.2782 42.5093 19.7796 42.968C20.2809 43.4267 20.5316 44.1573 20.5316 45.16V51H19.5076L19.2356 49.784H19.1716C18.9262 50.0933 18.6702 50.3547 18.4036 50.568C18.1476 50.7707 17.8489 50.92 17.5076 51.016C17.1769 51.112 16.7716 51.16 16.2916 51.16C15.7796 51.16 15.3156 51.0693 14.8996 50.888C14.4942 50.7067 14.1742 50.4293 13.9396 50.056C13.7049 49.672 13.5876 49.192 13.5876 48.616C13.5876 47.7627 13.9236 47.1067 14.5956 46.648C15.2676 46.1787 16.3022 45.9227 17.6996 45.88L19.1556 45.832V45.32C19.1556 44.6053 19.0009 44.1093 18.6916 43.832C18.3822 43.5547 17.9449 43.416 17.3796 43.416C16.9316 43.416 16.5049 43.4853 16.0996 43.624C15.6942 43.752 15.3156 43.9013 14.9636 44.072L14.5316 43.016C14.9049 42.8133 15.3476 42.6427 15.8596 42.504C16.3716 42.3547 16.9049 42.28 17.4596 42.28ZM17.8756 46.856C16.8089 46.8987 16.0676 47.0693 15.6516 47.368C15.2462 47.6667 15.0436 48.088 15.0436 48.632C15.0436 49.112 15.1876 49.464 15.4756 49.688C15.7742 49.912 16.1529 50.024 16.6116 50.024C17.3369 50.024 17.9396 49.8267 18.4196 49.432C18.8996 49.0267 19.1396 48.408 19.1396 47.576V46.808L17.8756 46.856ZM27.1803 42.264C27.3403 42.264 27.511 42.2747 27.6923 42.296C27.8843 42.3067 28.0496 42.328 28.1883 42.36L28.0123 43.656C27.8736 43.624 27.719 43.5973 27.5483 43.576C27.3883 43.5547 27.2336 43.544 27.0843 43.544C26.7536 43.544 26.439 43.6133 26.1403 43.752C25.8416 43.8907 25.575 44.088 25.3403 44.344C25.1056 44.5893 24.919 44.888 24.7803 45.24C24.6523 45.592 24.5883 45.9867 24.5883 46.424V51H23.1803V42.424H24.3323L24.4923 43.992H24.5563C24.7376 43.672 24.9563 43.384 25.2123 43.128C25.4683 42.8613 25.7616 42.6533 26.0923 42.504C26.423 42.344 26.7856 42.264 27.1803 42.264ZM31.1977 42.424V51H29.7897V42.424H31.1977ZM30.5097 39.208C30.723 39.208 30.9097 39.2827 31.0697 39.432C31.2404 39.5707 31.3257 39.7947 31.3257 40.104C31.3257 40.4027 31.2404 40.6267 31.0697 40.776C30.9097 40.9253 30.723 41 30.5097 41C30.275 41 30.0777 40.9253 29.9177 40.776C29.7577 40.6267 29.6777 40.4027 29.6777 40.104C29.6777 39.7947 29.7577 39.5707 29.9177 39.432C30.0777 39.2827 30.275 39.208 30.5097 39.208ZM35.3067 45.192C35.3067 45.3627 35.296 45.5867 35.2747 45.864C35.264 46.1413 35.2534 46.3813 35.2427 46.584H35.3067C35.3707 46.4987 35.4667 46.376 35.5947 46.216C35.7227 46.056 35.8507 45.896 35.9787 45.736C36.1174 45.5653 36.2347 45.4267 36.3307 45.32L39.0667 42.424H40.7147L37.2427 46.088L40.9547 51H39.2587L36.2827 47L35.3067 47.848V51H33.9147V38.84H35.3067V45.192ZM43.8696 42.424V51H42.4616V42.424H43.8696ZM43.1816 39.208C43.3949 39.208 43.5816 39.2827 43.7416 39.432C43.9122 39.5707 43.9976 39.7947 43.9976 40.104C43.9976 40.4027 43.9122 40.6267 43.7416 40.776C43.5816 40.9253 43.3949 41 43.1816 41C42.9469 41 42.7496 40.9253 42.5896 40.776C42.4296 40.6267 42.3496 40.4027 42.3496 40.104C42.3496 39.7947 42.4296 39.5707 42.5896 39.432C42.7496 39.2827 42.9469 39.208 43.1816 39.208ZM50.5866 42.264C50.7466 42.264 50.9172 42.2747 51.0986 42.296C51.2906 42.3067 51.4559 42.328 51.5946 42.36L51.4186 43.656C51.2799 43.624 51.1252 43.5973 50.9546 43.576C50.7946 43.5547 50.6399 43.544 50.4906 43.544C50.1599 43.544 49.8452 43.6133 49.5466 43.752C49.2479 43.8907 48.9812 44.088 48.7466 44.344C48.5119 44.5893 48.3252 44.888 48.1866 45.24C48.0586 45.592 47.9946 45.9867 47.9946 46.424V51H46.5866V42.424H47.7386L47.8986 43.992H47.9626C48.1439 43.672 48.3626 43.384 48.6186 43.128C48.8746 42.8613 49.1679 42.6533 49.4986 42.504C49.8292 42.344 50.1919 42.264 50.5866 42.264ZM60.3639 42.424V51H59.2119L59.0039 49.864H58.9399C58.7586 50.1627 58.5239 50.408 58.2359 50.6C57.9479 50.792 57.6333 50.9307 57.2919 51.016C56.9506 51.112 56.5933 51.16 56.2199 51.16C55.5373 51.16 54.9613 51.0533 54.4919 50.84C54.0333 50.616 53.6866 50.2747 53.4519 49.816C53.2173 49.3573 53.0999 48.7653 53.0999 48.04V42.424H54.5239V47.944C54.5239 48.6267 54.6786 49.1387 54.9879 49.48C55.2973 49.8213 55.7773 49.992 56.4279 49.992C57.0679 49.992 57.5693 49.8747 57.9319 49.64C58.3053 49.3947 58.5666 49.0427 58.7159 48.584C58.8759 48.1147 58.9559 47.5493 58.9559 46.888V42.424H60.3639Z" fill="#F5F7FA"/>
</svg>
